<?xml version="1.0" encoding="UTF-8" standalone="no"?>
<!DOCTYPE svg PUBLIC "-//W3C//DTD SVG 1.1//EN" "http://www.w3.org/Graphics/SVG/1.1/DTD/svg11.dtd">
<svg width="100%" height="100%" viewBox="0 0 40 40" version="1.1" xmlns="http://www.w3.org/2000/svg"
     xml:space="preserve" xmlns:serif="http://www.serif.com/"
     style="fill-rule:evenodd;clip-rule:evenodd;stroke-linejoin:round;stroke-miterlimit:2;">
    <g id="Layer-1" serif:id="Layer 1" transform="matrix(0.133333,0,0,0.133333,-0.0314967,-72.2205)">
        <g id="path907" transform="matrix(0.8,0,0,0.8,30.0472,138.331)">
            <path d="M74.383,541.654C33.46,541.654 0.236,574.876 0.236,615.799L0.236,767.507C0.236,808.43 33.461,841.654 74.383,841.654L226.092,841.654C267.015,841.654 300.236,808.43 300.236,767.507L300.236,615.799C300.236,574.876 267.016,541.654 226.092,541.654L74.383,541.654Z" style="fill:rgb(228,0,70);"/>
        </g>
        <g id="path909" transform="matrix(0.8,0,0,0.8,30.0472,138.331)">
            <path d="M157.916,596.652C155.414,596.701 153.165,598.232 152.203,600.543L114.425,691.409C114.069,692.214 113.885,693.085 113.885,693.965C113.885,697.433 116.739,700.287 120.207,700.287C122.807,700.287 125.153,698.683 126.097,696.261L157.993,619.536L224.892,782.652C225.833,785.08 228.182,786.688 230.786,786.688C234.254,786.688 237.108,783.835 237.108,780.366C237.108,779.502 236.931,778.647 236.587,777.854L163.883,600.573C162.896,598.166 160.518,596.603 157.916,596.652Z" style="fill:white;"/>
        </g>
        <g id="path911" transform="matrix(0.8,0,0,0.8,30.0472,138.331)">
            <path d="M104.364,725.539C101.831,725.593 99.565,727.163 98.626,729.516L78.545,777.825C78.209,778.611 78.035,779.458 78.035,780.314C78.035,783.782 80.889,786.636 84.357,786.636C86.93,786.636 89.257,785.065 90.22,782.679L110.3,734.369C110.643,733.577 110.82,732.723 110.82,731.86C110.82,728.392 107.966,725.538 104.498,725.538C104.453,725.538 104.408,725.538 104.364,725.539Z" style="fill:white;fill-rule:nonzero;"/>
        </g>
        <g id="path915" transform="matrix(0.8,0,0,0.8,30.0472,136.457)">
            <path d="M61.083,721.56C61.04,721.559 60.998,721.558 60.956,721.558C57.487,721.558 54.633,724.412 54.633,727.88C54.633,731.348 57.487,734.202 60.956,734.202C60.998,734.202 61.04,734.202 61.083,734.201L134.087,734.201C134.129,734.202 134.171,734.202 134.214,734.202C137.682,734.202 140.536,731.348 140.536,727.88C140.536,724.412 137.682,721.558 134.214,721.558C134.171,721.558 134.129,721.559 134.087,721.559L61.083,721.56Z" style="fill:white;"/>
        </g>
        <g id="path919" transform="matrix(0.8,0,0,0.8,32.3991,138.417)">
            <path d="M74.447,691.548C74.405,691.547 74.362,691.546 74.319,691.546C70.851,691.546 67.997,694.4 67.997,697.868C67.997,701.336 70.851,704.19 74.319,704.19C74.362,704.19 74.405,704.19 74.447,704.189L147.443,704.189C147.486,704.19 147.529,704.19 147.572,704.19C151.04,704.19 153.894,701.336 153.894,697.868C153.894,694.4 151.04,691.546 147.572,691.546C147.529,691.546 147.486,691.547 147.443,691.548L74.447,691.548Z" style="fill:white;"/>
        </g>
    </g>
</svg>
