<?xml version="1.0" encoding="UTF-8" standalone="no"?>
<!DOCTYPE svg PUBLIC "-//W3C//DTD SVG 1.1//EN" "http://www.w3.org/Graphics/SVG/1.1/DTD/svg11.dtd">
<svg width="100%" height="100%" viewBox="0 0 16 16" version="1.1" xmlns="http://www.w3.org/2000/svg"
     xml:space="preserve"
     style="fill-rule:evenodd;clip-rule:evenodd;stroke-linejoin:round;stroke-miterlimit:2;">
    <g transform="matrix(1,0,0,1,-32,-16)">
        <g>
            <g transform="matrix(1,0,0,1,32,16)">
                <path d="M15,8C15,11.866 11.866,15 8,15C4.134,15 1,11.866 1,8C1,4.134 4.134,1 8,1C11.866,1 15,4.134 15,8" style="fill:rgb(218,248,155);fill-opacity:0.6;"/>
            </g>
            <g transform="matrix(1.15108,0,0,1.13548,32.005,22.7951)">
                <g transform="matrix(12,0,0,12,3.93426,4.5512)">
                    <path d="M0.205,0.01C0.18,0.01 0.157,0.006 0.136,-0.003C0.115,-0.011 0.096,-0.022 0.081,-0.037C0.065,-0.052 0.053,-0.069 0.043,-0.089C0.035,-0.108 0.03,-0.13 0.03,-0.153C0.03,-0.177 0.035,-0.199 0.046,-0.219C0.057,-0.238 0.072,-0.255 0.092,-0.269C0.111,-0.283 0.135,-0.294 0.162,-0.302C0.189,-0.31 0.218,-0.314 0.25,-0.314C0.275,-0.314 0.301,-0.312 0.327,-0.307C0.353,-0.302 0.376,-0.296 0.396,-0.288L0.396,-0.33C0.396,-0.373 0.384,-0.406 0.36,-0.431C0.336,-0.455 0.302,-0.467 0.258,-0.467C0.205,-0.467 0.15,-0.447 0.092,-0.406L0.063,-0.463C0.13,-0.508 0.198,-0.531 0.266,-0.531C0.335,-0.531 0.388,-0.513 0.427,-0.476C0.465,-0.439 0.484,-0.388 0.484,-0.321L0.484,-0.108C0.484,-0.087 0.493,-0.077 0.512,-0.076L0.512,0C0.503,0.001 0.495,0.002 0.489,0.003C0.483,0.004 0.477,0.004 0.47,0.004C0.453,0.004 0.439,-0.001 0.429,-0.012C0.418,-0.022 0.412,-0.034 0.41,-0.049L0.408,-0.086C0.385,-0.055 0.355,-0.031 0.32,-0.015C0.284,0.002 0.246,0.01 0.205,0.01ZM0.228,-0.056C0.259,-0.056 0.289,-0.062 0.316,-0.074C0.343,-0.085 0.363,-0.101 0.377,-0.12C0.39,-0.133 0.396,-0.146 0.396,-0.159L0.396,-0.236C0.353,-0.253 0.309,-0.261 0.263,-0.261C0.219,-0.261 0.183,-0.252 0.156,-0.233C0.128,-0.214 0.114,-0.19 0.114,-0.16C0.114,-0.145 0.117,-0.132 0.123,-0.119C0.128,-0.106 0.136,-0.095 0.147,-0.086C0.157,-0.077 0.169,-0.069 0.183,-0.064C0.197,-0.059 0.212,-0.056 0.228,-0.056Z" style="fill:rgb(35,31,32);fill-opacity:0.7;fill-rule:nonzero;"/>
                </g>
            </g>
        </g>
    </g>
</svg>
