<svg width="100%" height="100%" viewBox="0 0 16 16" version="1.1" xmlns="http://www.w3.org/2000/svg"
     xml:space="preserve"
     style="fill-rule:evenodd;clip-rule:evenodd;stroke-linejoin:round;stroke-miterlimit:1.41421;">
    <g transform="matrix(1,0,0,1,0,-16)">
        <g>
            <g transform="matrix(1,0,0,1,0,16)">
                <path d="M15,8C15,11.866 11.866,15 8,15C4.134,15 1,11.866 1,8C1,4.134 4.134,1 8,1C11.866,1 15,4.134 15,8" style="fill:rgb(248,232,155);fill-opacity:0.6;"/>
            </g>
            <g transform="matrix(0.909104,0,0,0.909104,1.63749,23.8526)">
                <path d="M8.002,4.671C7.514,4.671 7.07,4.551 6.67,4.311C6.27,4.071 5.954,3.759 5.722,3.375L5.722,4.551L4.786,4.551L4.786,-4.209L5.842,-4.209L5.842,-0.465C6.106,-0.873 6.43,-1.201 6.814,-1.449C7.198,-1.697 7.646,-1.821 8.158,-1.821C8.59,-1.821 8.978,-1.729 9.322,-1.545C9.666,-1.361 9.96,-1.119 10.204,-0.819C10.448,-0.519 10.636,-0.171 10.768,0.225C10.9,0.621 10.966,1.027 10.966,1.443C10.966,1.883 10.89,2.299 10.738,2.691C10.586,3.083 10.378,3.425 10.114,3.717C9.85,4.009 9.536,4.241 9.172,4.413C8.808,4.585 8.418,4.671 8.002,4.671ZM7.738,3.759C8.05,3.759 8.338,3.695 8.602,3.567C8.866,3.439 9.094,3.267 9.286,3.051C9.478,2.835 9.626,2.589 9.73,2.313C9.834,2.037 9.886,1.747 9.886,1.443C9.886,1.139 9.836,0.845 9.736,0.561C9.636,0.277 9.496,0.027 9.316,-0.189C9.136,-0.405 8.92,-0.579 8.668,-0.711C8.416,-0.843 8.138,-0.909 7.834,-0.909C7.61,-0.909 7.398,-0.869 7.198,-0.789C6.998,-0.709 6.812,-0.603 6.64,-0.471C6.468,-0.339 6.316,-0.185 6.184,-0.009C6.052,0.167 5.938,0.355 5.842,0.555L5.842,2.367C5.882,2.567 5.968,2.751 6.1,2.919C6.232,3.087 6.388,3.233 6.568,3.357C6.748,3.481 6.94,3.579 7.144,3.651C7.348,3.723 7.546,3.759 7.738,3.759Z" style="fill:rgb(35,31,32);fill-opacity:0.698039;fill-rule:nonzero;"/>
            </g>
        </g>
    </g>
</svg>
