<?xml version="1.0" encoding="UTF-8" standalone="no"?>
<!DOCTYPE svg PUBLIC "-//W3C//DTD SVG 1.1//EN" "http://www.w3.org/Graphics/SVG/1.1/DTD/svg11.dtd">
<svg width="100%" height="100%" viewBox="0 0 16 16" version="1.1" xmlns="http://www.w3.org/2000/svg"
     xml:space="preserve"
     style="fill-rule:evenodd;clip-rule:evenodd;stroke-linejoin:round;stroke-miterlimit:2;">
    <g transform="matrix(1,0,0,1,-16,-32)">
        <g>
            <g transform="matrix(1,0,0,1,16,32)">
                <path d="M15,8C15,11.866 11.866,15 8,15C4.134,15 1,11.866 1,8C1,4.134 4.134,1 8,1C11.866,1 15,4.134 15,8" style="fill:rgb(200,144,81);fill-opacity:0.6;"/>
            </g>
            <g transform="matrix(0.907482,0,0,0.907482,18.6348,39.6604)">
                <g transform="matrix(12,0,0,12,3.93426,4.5512)">
                    <path d="M0.073,-0.73L0.161,-0.73L0.161,-0.135C0.161,-0.116 0.166,-0.101 0.177,-0.09C0.187,-0.079 0.201,-0.073 0.22,-0.073C0.227,-0.073 0.236,-0.074 0.246,-0.077C0.256,-0.079 0.265,-0.082 0.274,-0.085L0.288,-0.014C0.273,-0.008 0.256,-0.003 0.236,0.001C0.216,0.005 0.198,0.007 0.183,0.007C0.149,0.007 0.122,-0.003 0.102,-0.022C0.083,-0.041 0.073,-0.068 0.073,-0.103L0.073,-0.73Z" style="fill:rgb(35,31,32);fill-opacity:0.7;fill-rule:nonzero;"/>
                </g>
            </g>
        </g>
    </g>
</svg>
