<svg width="100%" height="100%" viewBox="0 0 16 16" version="1.1" xmlns="http://www.w3.org/2000/svg"
     xml:space="preserve"
     style="fill-rule:evenodd;clip-rule:evenodd;stroke-linejoin:round;stroke-miterlimit:1.41421;">
    <g>
        <path d="M15,8C15,11.866 11.866,15 8,15C4.134,15 1,11.866 1,8C1,4.134 4.134,1 8,1C11.866,1 15,4.134 15,8" style="fill:rgb(155,172,248);fill-opacity:0.6;"/>
        <g transform="matrix(0.949537,0,0,0.949537,-1.58535,6.74602)">
            <path d="M14.23,4.551L13.174,4.551L13.174,1.047C13.174,0.391 13.068,-0.093 12.856,-0.405C12.644,-0.717 12.33,-0.873 11.914,-0.873C11.482,-0.873 11.096,-0.719 10.756,-0.411C10.416,-0.103 10.174,0.295 10.03,0.783L10.03,4.551L8.974,4.551L8.974,1.047C8.974,0.375 8.87,-0.113 8.662,-0.417C8.454,-0.721 8.142,-0.873 7.726,-0.873C7.302,-0.873 6.918,-0.723 6.574,-0.423C6.23,-0.123 5.986,0.275 5.842,0.771L5.842,4.551L4.786,4.551L4.786,-1.713L5.746,-1.713L5.746,-0.369C6.002,-0.833 6.334,-1.191 6.742,-1.443C7.15,-1.695 7.61,-1.821 8.122,-1.821C8.65,-1.821 9.068,-1.679 9.376,-1.395C9.684,-1.111 9.874,-0.745 9.946,-0.297C10.506,-1.313 11.302,-1.821 12.334,-1.821C12.694,-1.821 12.996,-1.755 13.24,-1.623C13.484,-1.491 13.678,-1.307 13.822,-1.071C13.966,-0.835 14.07,-0.557 14.134,-0.237C14.198,0.083 14.23,0.431 14.23,0.807L14.23,4.551Z" style="fill:rgb(35,31,32);fill-opacity:0.698039;fill-rule:nonzero;"/>
        </g>
    </g>
</svg>
