<svg width="100%" height="100%" viewBox="0 0 16 16" version="1.1" xmlns="http://www.w3.org/2000/svg"
     xml:space="preserve"
     style="fill-rule:evenodd;clip-rule:evenodd;stroke-linejoin:round;stroke-miterlimit:1.41421;">
    <g transform="matrix(1,0,0,1,-16,0)">
        <g>
            <g transform="matrix(1,0,0,1,16,0)">
                <path d="M15,8C15,11.866 11.866,15 8,15C4.134,15 1,11.866 1,8C1,4.134 4.134,1 8,1C11.866,1 15,4.134 15,8" style="fill:rgb(185,155,248);fill-opacity:0.6;"/>
            </g>
            <g transform="matrix(0.797269,0,0,0.943853,18.2422,6.67401)">
                <path d="M7.006,4.671C6.502,4.671 6,4.589 5.5,4.425C5,4.261 4.57,4.027 4.21,3.723L4.738,2.883C5.114,3.155 5.486,3.361 5.854,3.501C6.222,3.641 6.598,3.711 6.982,3.711C7.374,3.711 7.684,3.635 7.912,3.483C8.14,3.331 8.254,3.115 8.254,2.835C8.254,2.571 8.126,2.379 7.87,2.259C7.614,2.139 7.214,2.007 6.67,1.863C6.278,1.759 5.942,1.659 5.662,1.563C5.382,1.467 5.154,1.355 4.978,1.227C4.802,1.099 4.674,0.951 4.594,0.783C4.514,0.615 4.474,0.411 4.474,0.171C4.474,-0.149 4.536,-0.433 4.66,-0.681C4.784,-0.929 4.956,-1.139 5.176,-1.311C5.396,-1.483 5.654,-1.613 5.95,-1.701C6.246,-1.789 6.566,-1.833 6.91,-1.833C7.382,-1.833 7.822,-1.761 8.23,-1.617C8.638,-1.473 9.002,-1.265 9.322,-0.993L8.758,-0.201C8.174,-0.665 7.554,-0.897 6.898,-0.897C6.562,-0.897 6.28,-0.827 6.052,-0.687C5.824,-0.547 5.71,-0.325 5.71,-0.021C5.71,0.107 5.734,0.215 5.782,0.303C5.83,0.391 5.908,0.467 6.016,0.531C6.124,0.595 6.264,0.653 6.436,0.705C6.608,0.757 6.822,0.815 7.078,0.879C7.502,0.983 7.868,1.087 8.176,1.191C8.484,1.295 8.738,1.417 8.938,1.557C9.138,1.697 9.286,1.861 9.382,2.049C9.478,2.237 9.526,2.463 9.526,2.727C9.526,3.327 9.3,3.801 8.848,4.149C8.396,4.497 7.782,4.671 7.006,4.671Z" style="fill:rgb(35,31,32);fill-opacity:0.698039;fill-rule:nonzero;"/>
            </g>
        </g>
    </g>
</svg>
