<?xml version="1.0" encoding="UTF-8" standalone="no"?><!DOCTYPE svg PUBLIC "-//W3C//DTD SVG 1.1//EN" "http://www.w3.org/Graphics/SVG/1.1/DTD/svg11.dtd"><svg width="100%" height="100%" viewBox="0 0 16 16" version="1.1" xmlns="http://www.w3.org/2000/svg" xmlns:xlink="http://www.w3.org/1999/xlink" xml:space="preserve" xmlns:serif="http://www.serif.com/" style="fill-rule:evenodd;clip-rule:evenodd;stroke-linejoin:round;stroke-miterlimit:1.41421;"><g><path d="M6,0l-4,4l4,0l0,-4Z" style="fill:#9aa7b0;fill-opacity:0.7;fill-rule:nonzero;"/><path d="M7,0l0,5l-1,0l-4,0l0,10l11,0l0,-15l-6,0Z" style="fill:#9aa7b0;fill-opacity:0.7;fill-rule:nonzero;"/><g><path id="path909" d="M9.826,4.532c-0.148,0.003 -0.281,0.093 -0.338,0.23l-2.237,5.381c-0.021,0.048 -0.032,0.1 -0.032,0.152c0,0.205 0.169,0.374 0.374,0.374c0.154,0 0.293,-0.095 0.349,-0.238l1.889,-4.544l3.962,9.66c0.056,0.144 0.195,0.239 0.349,0.239c0.205,0 0.374,-0.169 0.374,-0.374c0,-0.052 -0.01,-0.102 -0.031,-0.149l-4.305,-10.499c-0.059,-0.143 -0.2,-0.235 -0.354,-0.232Z" style="fill:#191919;"/><path id="path911" d="M6.655,12.165c-0.15,0.003 -0.284,0.096 -0.34,0.235l-1.189,2.861c-0.02,0.047 -0.03,0.097 -0.03,0.147c0,0.206 0.169,0.375 0.374,0.375c0.152,0 0.29,-0.093 0.347,-0.234l1.189,-2.861c0.021,-0.047 0.031,-0.098 0.031,-0.149c0,-0.205 -0.169,-0.374 -0.374,-0.374c-0.003,0 -0.006,0 -0.008,0Z" style="fill:#191919;fill-rule:nonzero;"/><path id="path915" d="M4.092,11.929c-0.003,0 -0.005,0 -0.008,0c-0.205,0 -0.374,0.169 -0.374,0.374c0,0.206 0.169,0.375 0.374,0.375c0.003,0 0.005,0 0.008,0l4.323,0c0.003,0 0.005,0 0.008,0c0.205,0 0.374,-0.169 0.374,-0.375c0,-0.205 -0.169,-0.374 -0.374,-0.374c-0.003,0 -0.005,0 -0.008,0l-4.323,0Z" style="fill:#e40046;"/><path id="path919" d="M4.883,10.152c-0.002,0 -0.005,-0.001 -0.007,-0.001c-0.206,0 -0.375,0.17 -0.375,0.375c0,0.205 0.169,0.374 0.375,0.374c0.002,0 0.005,0 0.007,0l4.323,0c0.003,0 0.005,0 0.008,0c0.205,0 0.374,-0.169 0.374,-0.374c0,-0.205 -0.169,-0.375 -0.374,-0.375c-0.003,0 -0.005,0.001 -0.008,0.001l-4.323,0Z" style="fill:#e40046;"/></g></g></svg>